<svg width="261" height="150" viewBox="0 0 261 150" fill="none" xmlns="http://www.w3.org/2000/svg">
<path d="M16.1865 60.88C14.0745 60.88 12.0905 60.72 10.2345 60.4C8.4425 60.08 6.8425 59.472 5.4345 58.576C4.0905 57.68 3.0025 56.464 2.1705 54.928C1.4025 53.392 0.9865 51.44 0.9225 49.072C0.7945 43.248 0.6665 37.488 0.5385 31.792C0.4105 26.032 0.3465 20.24 0.3465 14.416C0.3465 12.176 0.5065 10.192 0.8265 8.464C1.1465 6.736 1.7225 5.296 2.5545 4.144C3.3865 2.99199 4.5705 2.128 6.1065 1.552C7.6425 0.976 9.5945 0.688 11.9625 0.688C17.0185 0.688 21.4345 1.136 25.2105 2.032C29.0505 2.928 32.2185 4.464 34.7145 6.64C37.2745 8.752 39.1945 11.6 40.4745 15.184C41.7545 18.704 42.3945 23.12 42.3945 28.432C42.3945 32.976 41.9785 37.232 41.1465 41.2C40.3785 45.168 39.0025 48.624 37.0185 51.568C35.0345 54.448 32.3465 56.72 28.9545 58.384C25.5625 60.048 21.3065 60.88 16.1865 60.88ZM15.9945 44.464C15.9945 45.168 16.2505 45.648 16.7625 45.904C17.2745 46.096 17.8185 46.192 18.3945 46.192C20.1865 46.192 21.6265 45.552 22.7145 44.272C23.8665 42.928 24.7305 41.36 25.3065 39.568C25.9465 37.712 26.3625 35.792 26.5545 33.808C26.8105 31.824 26.9385 30.192 26.9385 28.912C26.9385 24.944 26.1705 21.84 24.6345 19.6C23.0985 17.296 20.1865 16.048 15.8985 15.856L15.9945 44.464ZM54.9038 61.264C51.9598 61.264 49.9438 60.528 48.8558 59.056C47.7678 57.584 47.2238 55.472 47.2238 52.72C47.2238 46.064 47.1918 39.44 47.1278 32.848C47.1278 26.256 47.1278 19.632 47.1278 12.976C47.1278 11.952 47.1598 10.864 47.2238 9.712C47.3518 8.496 47.5758 7.376 47.8958 6.352C48.2798 5.264 48.8238 4.368 49.5278 3.664C50.2958 2.896 51.3198 2.416 52.5998 2.224C56.1838 1.712 59.7998 1.328 63.4478 1.07199C67.0958 0.815998 70.7438 0.688 74.3918 0.688C75.0958 0.688 75.7678 1.008 76.4078 1.648C77.0478 2.224 77.5918 2.928 78.0398 3.76C78.5518 4.592 78.9358 5.456 79.1918 6.352C79.5118 7.248 79.6718 7.984 79.6718 8.56C79.6718 9.392 79.6078 10.224 79.4798 11.056C79.4158 11.888 79.2238 12.656 78.9038 13.36C78.5838 14 78.1038 14.544 77.4638 14.992C76.8878 15.376 76.0878 15.632 75.0638 15.76L62.0078 16.816L62.4878 22.768H71.8958C73.8798 22.768 75.2238 23.44 75.9278 24.784C76.6318 26.064 76.9838 27.568 76.9838 29.296C76.9838 29.936 76.9198 30.704 76.7918 31.6C76.7278 32.432 76.5358 33.264 76.2158 34.096C75.9598 34.864 75.5758 35.536 75.0638 36.112C74.5518 36.688 73.8478 36.976 72.9518 36.976H62.4878L63.0638 45.52H68.2478C68.9518 45.52 69.4958 45.328 69.8798 44.944C70.3278 44.496 70.7438 44.016 71.1278 43.504C71.5758 42.928 72.0558 42.448 72.5677 42.064C73.1438 41.616 73.8478 41.392 74.6798 41.392C76.7278 41.392 78.3918 41.936 79.6718 43.024C80.9518 44.112 81.5918 45.712 81.5918 47.824C81.5918 50.256 81.4638 52.304 81.2078 53.968C81.0158 55.632 80.5038 56.976 79.6718 58C78.8398 59.024 77.6558 59.792 76.1198 60.304C74.6478 60.816 72.5998 61.104 69.9758 61.168C68.5038 61.232 66.9998 61.264 65.4638 61.264C63.9278 61.264 62.4238 61.264 60.9518 61.264H54.9038ZM92.7945 60.88C90.4905 60.88 88.6025 60.432 87.1305 59.536C85.6585 58.64 84.7625 56.976 84.4425 54.544C84.1225 51.92 83.9305 49.296 83.8665 46.672C83.8665 44.048 83.8665 41.456 83.8665 38.896C83.8665 35.376 83.9305 31.888 84.0585 28.432C84.1865 24.976 84.3145 21.52 84.4425 18.064C84.5065 16.528 84.5705 14.8 84.6345 12.88C84.7625 10.96 85.0825 9.136 85.5945 7.408C86.1065 5.68 86.9065 4.24 87.9945 3.088C89.1465 1.936 90.7785 1.36 92.8905 1.36C94.2345 1.36 95.5465 1.648 96.8265 2.224C98.1065 2.736 99.1945 3.504 100.091 4.528C100.987 5.552 101.947 7.248 102.971 9.616C104.059 11.984 105.115 14.576 106.139 17.392C107.227 20.144 108.283 22.864 109.307 25.552C110.395 28.24 111.387 30.352 112.283 31.888C112.283 28.112 112.219 24.368 112.091 20.656C111.963 16.88 111.899 13.104 111.899 9.328C111.899 6.96 112.443 5.04 113.531 3.568C114.683 2.032 116.507 1.264 119.003 1.264C120.091 1.264 121.147 1.424 122.171 1.744C123.259 2.064 124.187 2.544 124.955 3.184C125.787 3.824 126.427 4.624 126.875 5.584C127.387 6.48 127.643 7.536 127.643 8.752V14.128L127.739 24.88C127.803 25.776 127.835 26.704 127.835 27.664C127.835 28.56 127.835 29.456 127.835 30.352C127.835 34.256 127.771 38.224 127.643 42.256C127.579 46.224 127.227 50.16 126.587 54.064C126.395 55.344 126.139 56.4 125.819 57.232C125.499 58.064 125.051 58.704 124.475 59.152C123.963 59.664 123.291 59.984 122.459 60.112C121.627 60.304 120.539 60.4 119.195 60.4C117.595 60.4 116.059 59.792 114.587 58.576C113.179 57.424 111.867 56.016 110.651 54.352C109.499 52.688 108.443 50.96 107.483 49.168C106.587 47.376 105.787 45.872 105.083 44.656C103.995 42.736 102.971 40.752 102.011 38.704C101.115 36.656 100.315 34.576 99.6105 32.464C99.8025 39.568 99.8985 46.64 99.8985 53.68C99.8985 58.48 97.5305 60.88 92.7945 60.88ZM149.124 60.88C147.012 60.88 145.028 60.72 143.172 60.4C141.38 60.08 139.78 59.472 138.372 58.576C137.028 57.68 135.94 56.464 135.108 54.928C134.34 53.392 133.924 51.44 133.86 49.072C133.732 43.248 133.604 37.488 133.476 31.792C133.348 26.032 133.284 20.24 133.284 14.416C133.284 12.176 133.444 10.192 133.764 8.464C134.084 6.736 134.66 5.296 135.492 4.144C136.324 2.99199 137.508 2.128 139.044 1.552C140.58 0.976 142.532 0.688 144.9 0.688C149.956 0.688 154.372 1.136 158.148 2.032C161.988 2.928 165.156 4.464 167.652 6.64C170.212 8.752 172.132 11.6 173.412 15.184C174.692 18.704 175.332 23.12 175.332 28.432C175.332 32.976 174.916 37.232 174.084 41.2C173.316 45.168 171.94 48.624 169.956 51.568C167.972 54.448 165.284 56.72 161.892 58.384C158.5 60.048 154.244 60.88 149.124 60.88ZM148.932 44.464C148.932 45.168 149.188 45.648 149.7 45.904C150.212 46.096 150.756 46.192 151.332 46.192C153.124 46.192 154.564 45.552 155.652 44.272C156.804 42.928 157.668 41.36 158.244 39.568C158.884 37.712 159.3 35.792 159.492 33.808C159.748 31.824 159.876 30.192 159.876 28.912C159.876 24.944 159.108 21.84 157.572 19.6C156.036 17.296 153.124 16.048 148.836 15.856L148.932 44.464ZM187.841 61.264C184.897 61.264 182.881 60.528 181.793 59.056C180.705 57.584 180.161 55.472 180.161 52.72C180.161 46.064 180.129 39.44 180.065 32.848C180.065 26.256 180.065 19.632 180.065 12.976C180.065 11.952 180.097 10.864 180.161 9.712C180.289 8.496 180.513 7.376 180.833 6.352C181.217 5.264 181.761 4.368 182.465 3.664C183.233 2.896 184.257 2.416 185.537 2.224C189.121 1.712 192.737 1.328 196.385 1.07199C200.033 0.815998 203.681 0.688 207.329 0.688C208.033 0.688 208.705 1.008 209.345 1.648C209.985 2.224 210.529 2.928 210.977 3.76C211.489 4.592 211.873 5.456 212.129 6.352C212.449 7.248 212.609 7.984 212.609 8.56C212.609 9.392 212.545 10.224 212.417 11.056C212.353 11.888 212.161 12.656 211.841 13.36C211.521 14 211.041 14.544 210.401 14.992C209.825 15.376 209.025 15.632 208.001 15.76L194.945 16.816L195.425 22.768H204.833C206.817 22.768 208.161 23.44 208.865 24.784C209.569 26.064 209.921 27.568 209.921 29.296C209.921 29.936 209.857 30.704 209.729 31.6C209.665 32.432 209.473 33.264 209.153 34.096C208.897 34.864 208.513 35.536 208.001 36.112C207.489 36.688 206.785 36.976 205.889 36.976H195.425L196.001 45.52H201.185C201.889 45.52 202.433 45.328 202.817 44.944C203.265 44.496 203.681 44.016 204.065 43.504C204.513 42.928 204.993 42.448 205.505 42.064C206.081 41.616 206.785 41.392 207.617 41.392C209.665 41.392 211.329 41.936 212.609 43.024C213.889 44.112 214.529 45.712 214.529 47.824C214.529 50.256 214.401 52.304 214.145 53.968C213.953 55.632 213.441 56.976 212.609 58C211.777 59.024 210.593 59.792 209.057 60.304C207.585 60.816 205.537 61.104 202.913 61.168C201.441 61.232 199.937 61.264 198.401 61.264C196.865 61.264 195.361 61.264 193.889 61.264H187.841ZM225.732 60.88C223.428 60.88 221.54 60.432 220.068 59.536C218.596 58.64 217.7 56.976 217.38 54.544C217.06 51.92 216.868 49.296 216.804 46.672C216.804 44.048 216.804 41.456 216.804 38.896C216.804 35.376 216.868 31.888 216.996 28.432C217.124 24.976 217.252 21.52 217.38 18.064C217.444 16.528 217.508 14.8 217.572 12.88C217.7 10.96 218.02 9.136 218.532 7.408C219.044 5.68 219.844 4.24 220.932 3.088C222.084 1.936 223.716 1.36 225.828 1.36C227.172 1.36 228.484 1.648 229.764 2.224C231.044 2.736 232.132 3.504 233.028 4.528C233.924 5.552 234.884 7.248 235.908 9.616C236.996 11.984 238.052 14.576 239.076 17.392C240.164 20.144 241.22 22.864 242.244 25.552C243.332 28.24 244.324 30.352 245.22 31.888C245.22 28.112 245.156 24.368 245.028 20.656C244.9 16.88 244.836 13.104 244.836 9.328C244.836 6.96 245.38 5.04 246.468 3.568C247.62 2.032 249.444 1.264 251.94 1.264C253.028 1.264 254.084 1.424 255.108 1.744C256.196 2.064 257.124 2.544 257.892 3.184C258.724 3.824 259.364 4.624 259.812 5.584C260.324 6.48 260.58 7.536 260.58 8.752V14.128L260.676 24.88C260.74 25.776 260.772 26.704 260.772 27.664C260.772 28.56 260.772 29.456 260.772 30.352C260.772 34.256 260.708 38.224 260.58 42.256C260.516 46.224 260.164 50.16 259.524 54.064C259.332 55.344 259.076 56.4 258.756 57.232C258.436 58.064 257.988 58.704 257.412 59.152C256.9 59.664 256.228 59.984 255.396 60.112C254.564 60.304 253.476 60.4 252.132 60.4C250.532 60.4 248.996 59.792 247.524 58.576C246.116 57.424 244.804 56.016 243.588 54.352C242.436 52.688 241.38 50.96 240.42 49.168C239.524 47.376 238.724 45.872 238.02 44.656C236.932 42.736 235.908 40.752 234.948 38.704C234.052 36.656 233.252 34.576 232.548 32.464C232.74 39.568 232.836 46.64 232.836 53.68C232.836 58.48 230.468 60.88 225.732 60.88ZM74.1431 148.4C71.9031 148.4 70.1751 147.76 68.9591 146.48C67.8071 145.2 66.9111 143.536 66.2711 141.488C65.4391 138.608 64.7351 135.408 64.1591 131.888C63.6471 128.304 63.2311 124.656 62.9111 120.944C62.5911 117.232 62.3671 113.552 62.2391 109.904C62.1751 106.256 62.1431 102.896 62.1431 99.824C62.1431 98.672 62.1751 97.456 62.2391 96.176C62.3031 94.832 62.5271 93.616 62.9111 92.528C63.3591 91.376 63.9991 90.448 64.8311 89.744C65.7271 89.04 66.9431 88.688 68.4791 88.688C69.7591 88.688 70.9431 88.88 72.0311 89.264C73.1831 89.584 74.1431 90.32 74.9111 91.472C75.2311 91.92 75.5191 92.88 75.7751 94.352C76.0951 95.824 76.3511 97.552 76.5431 99.536C76.7991 101.52 77.0231 103.632 77.2151 105.872C77.4071 108.112 77.5351 110.288 77.5991 112.4C77.7271 114.448 77.8231 116.304 77.8871 117.968C77.9511 119.632 77.9831 120.848 77.9831 121.616C78.1751 120.976 78.4631 119.952 78.8471 118.544C79.2311 117.072 79.6791 115.44 80.1911 113.648C80.7671 111.792 81.3431 109.904 81.9191 107.984C82.5591 106 83.1671 104.176 83.7431 102.512C84.3191 100.784 84.8311 99.344 85.2791 98.192C85.7911 96.976 86.2071 96.24 86.5271 95.984C87.0391 95.536 87.5511 95.248 88.0631 95.12C88.5751 94.992 89.1831 94.928 89.8871 94.928C90.5911 94.928 91.1671 94.992 91.6151 95.12C92.1271 95.248 92.6391 95.504 93.1511 95.888C93.5991 96.208 94.0791 96.944 94.5911 98.096C95.1671 99.248 95.7431 100.656 96.3191 102.32C96.8951 103.92 97.4711 105.68 98.0471 107.6C98.6231 109.456 99.1671 111.28 99.6791 113.072C100.191 114.8 100.639 116.368 101.023 117.776C101.407 119.184 101.695 120.24 101.887 120.944C101.951 119.216 101.983 117.36 101.983 115.376C101.983 113.328 101.983 111.312 101.983 109.328C102.047 107.28 102.111 105.264 102.175 103.28C102.239 101.296 102.367 99.472 102.559 97.808C102.687 96.528 102.879 95.344 103.135 94.256C103.391 93.168 103.775 92.208 104.287 91.376C104.863 90.544 105.599 89.904 106.495 89.456C107.455 89.008 108.671 88.784 110.143 88.784C112.767 88.784 114.559 89.36 115.519 90.512C116.543 91.6 117.055 93.424 117.055 95.984C117.055 103.216 116.511 110.416 115.423 117.584C114.335 124.752 113.183 131.92 111.967 139.088C111.775 140.304 111.551 141.488 111.295 142.64C111.103 143.728 110.751 144.72 110.239 145.616C109.727 146.448 109.023 147.12 108.127 147.632C107.231 148.144 106.047 148.4 104.575 148.4C103.231 148.4 101.919 148.208 100.639 147.824C99.4231 147.504 98.2711 146.896 97.1831 146C96.7351 145.616 96.2231 144.88 95.6471 143.792C95.1351 142.64 94.5911 141.328 94.0151 139.856C93.4391 138.32 92.8631 136.688 92.2871 134.96C91.7751 133.232 91.2951 131.568 90.8471 129.968C90.3991 128.304 89.9831 126.8 89.5991 125.456C89.2151 124.048 88.8951 122.992 88.6391 122.288C88.3191 123.376 87.8391 125.136 87.1991 127.568C86.5591 129.936 85.8551 132.4 85.0871 134.96C84.3831 137.52 83.6471 139.888 82.8791 142.064C82.1111 144.176 81.3751 145.488 80.6711 146C79.5831 146.896 78.5591 147.504 77.5991 147.824C76.7031 148.208 75.5511 148.4 74.1431 148.4ZM129.107 149.264C126.163 149.264 124.147 148.528 123.059 147.056C121.971 145.584 121.427 143.472 121.427 140.72C121.427 134.064 121.395 127.44 121.331 120.848C121.331 114.256 121.331 107.632 121.331 100.976C121.331 99.952 121.363 98.864 121.427 97.712C121.555 96.496 121.779 95.376 122.099 94.352C122.483 93.264 123.027 92.368 123.731 91.664C124.499 90.896 125.523 90.416 126.803 90.224C130.387 89.712 134.003 89.328 137.651 89.072C141.299 88.816 144.947 88.688 148.595 88.688C149.299 88.688 149.971 89.008 150.611 89.648C151.251 90.224 151.795 90.928 152.243 91.76C152.755 92.592 153.139 93.456 153.395 94.352C153.715 95.248 153.875 95.984 153.875 96.56C153.875 97.392 153.811 98.224 153.683 99.056C153.619 99.888 153.427 100.656 153.107 101.36C152.787 102 152.307 102.544 151.667 102.992C151.091 103.376 150.291 103.632 149.267 103.76L136.211 104.816L136.691 110.768H146.099C148.083 110.768 149.427 111.44 150.131 112.784C150.835 114.064 151.187 115.568 151.187 117.296C151.187 117.936 151.123 118.704 150.995 119.6C150.931 120.432 150.739 121.264 150.419 122.096C150.163 122.864 149.779 123.536 149.267 124.112C148.755 124.688 148.051 124.976 147.155 124.976H136.691L137.267 133.52H142.451C143.155 133.52 143.699 133.328 144.083 132.944C144.531 132.496 144.947 132.016 145.331 131.504C145.779 130.928 146.259 130.448 146.771 130.064C147.347 129.616 148.051 129.392 148.883 129.392C150.931 129.392 152.595 129.936 153.875 131.024C155.155 132.112 155.795 133.712 155.795 135.824C155.795 138.256 155.667 140.304 155.411 141.968C155.219 143.632 154.707 144.976 153.875 146C153.043 147.024 151.859 147.792 150.323 148.304C148.851 148.816 146.803 149.104 144.179 149.168C142.707 149.232 141.203 149.264 139.667 149.264C138.131 149.264 136.627 149.264 135.155 149.264H129.107ZM176.31 148.976C172.534 148.976 169.462 148.528 167.094 147.632C164.79 146.736 162.966 145.424 161.622 143.696C160.342 141.968 159.478 139.792 159.03 137.168C158.582 134.544 158.358 131.504 158.358 128.048V105.872C158.358 103.12 158.486 100.656 158.742 98.48C159.062 96.304 159.702 94.48 160.662 93.008C161.686 91.472 163.158 90.32 165.078 89.552C166.998 88.72 169.558 88.304 172.758 88.304C175.894 88.304 178.934 88.432 181.878 88.688C184.822 88.88 187.446 89.488 189.75 90.512C192.054 91.536 193.878 93.136 195.222 95.312C196.63 97.488 197.334 100.528 197.334 104.432C197.334 105.712 197.142 107.056 196.758 108.464C196.374 109.872 195.798 111.216 195.03 112.496C194.262 113.776 193.334 114.896 192.246 115.856C191.222 116.816 190.038 117.456 188.694 117.776C190.486 117.84 192.022 118.256 193.302 119.024C194.582 119.792 195.606 120.816 196.374 122.096C197.206 123.312 197.782 124.688 198.102 126.224C198.486 127.76 198.678 129.328 198.678 130.928C198.678 134.192 198.038 136.976 196.758 139.28C195.542 141.52 193.878 143.376 191.766 144.848C189.718 146.256 187.35 147.28 184.662 147.92C181.974 148.624 179.19 148.976 176.31 148.976ZM173.622 110.576C173.814 110.576 174.006 110.608 174.198 110.672C174.39 110.672 174.582 110.672 174.774 110.672C175.478 110.672 176.246 110.608 177.078 110.48C177.974 110.288 178.806 110.032 179.574 109.712C180.342 109.328 180.982 108.848 181.494 108.272C182.006 107.632 182.262 106.864 182.262 105.968C182.262 105.392 182.07 104.944 181.686 104.624C181.302 104.24 180.822 103.952 180.246 103.76C179.67 103.568 179.062 103.44 178.422 103.376C177.846 103.312 177.366 103.28 176.982 103.28C176.47 103.28 175.926 103.28 175.35 103.28C174.838 103.28 174.326 103.344 173.814 103.472C173.686 104.176 173.622 104.88 173.622 105.584C173.622 106.288 173.622 106.992 173.622 107.696V110.576ZM173.91 132.368C173.974 133.456 174.326 134.032 174.966 134.096C175.67 134.16 176.47 134.192 177.366 134.192C178.262 134.192 179.19 134.096 180.15 133.904C181.11 133.712 181.878 133.328 182.454 132.752C183.094 132.112 183.414 131.248 183.414 130.16C183.414 128.944 183.094 127.952 182.454 127.184C181.814 126.352 180.982 125.712 179.958 125.264C178.998 124.752 177.942 124.4 176.79 124.208C175.702 123.952 174.678 123.824 173.718 123.824L173.91 132.368Z" fill="#FCFAFA"/>
</svg>
